<?xml version="1.0" encoding="utf-8"?>
<!-- Generator: Adobe Illustrator 24.3.0, SVG Export Plug-In . SVG Version: 6.00 Build 0)  -->
<svg version="1.1" xmlns="http://www.w3.org/2000/svg" xmlns:xlink="http://www.w3.org/1999/xlink" x="0px" y="0px"
	 viewBox="0 0 425.2 212.6" style="enable-background:new 0 0 425.2 212.6;" xml:space="preserve">
<style type="text/css">
	.st0{fill:#3D3D3D;}
	.st1{fill:#85331F;}
	.st2{fill:#4A8B75;}
	.st3{fill:#4886A8;}
	.st4{fill:#A2443F;}
	.st5{fill:#40869A;}
	.st6{fill:#204456;}
	.st7{fill:#FFFFFF;}
</style>
<g id="PODLAGA">
</g>
<g id="VSEBINA">
	<path class="st7" d="M69.07,141.15V71.45h19.14v26.51l21.21-26.51h21.6l-25.33,31.22l27.1,38.49h-21.99l-17.28-25.62l-5.3,5.5
		v20.13H69.07z"/>
	<path class="st7" d="M172.54,141.15c-5.56,0-10.29-0.93-14.19-2.8c-3.9-1.87-7.04-4.43-9.43-7.71c-2.39-3.27-4.14-6.99-5.25-11.14
		c-1.11-4.16-1.67-8.49-1.67-13.01V71.45h13.55v35.05c0,2.88,0.28,5.68,0.83,8.39c0.55,2.72,1.49,5.15,2.8,7.31
		c1.31,2.16,3.04,3.86,5.2,5.11c2.16,1.24,4.84,1.87,8.05,1.87c3.27,0,6-0.64,8.2-1.91c2.19-1.28,3.93-2.99,5.2-5.15
		c1.28-2.16,2.21-4.6,2.8-7.31c0.59-2.71,0.88-5.48,0.88-8.3V71.45h13.45v35.05c0,4.78-0.57,9.26-1.72,13.45
		c-1.15,4.19-2.95,7.87-5.4,11.04c-2.45,3.18-5.61,5.66-9.47,7.46C182.52,140.25,177.91,141.15,172.54,141.15z"/>
	<path class="st7" d="M269.83,135.06v6.09H223V71.45h45.95v6.09h-39.07v25.13h34.07v5.79h-34.07v26.61H269.83z"/>
	<path class="st7" d="M352.69,141.15V78.32l-29.26,49.38h-2.36l-29.26-49.38v62.83h-3.44V71.45h3.14l30.73,51.84l30.73-51.84h3.14
		v69.71H352.69z"/>
</g>
</svg>
