<?xml version="1.0" encoding="utf-8"?>
<!-- Generator: Adobe Illustrator 21.0.2, SVG Export Plug-In . SVG Version: 6.00 Build 0)  -->
<svg version="1.1" id="Layer_1" xmlns="http://www.w3.org/2000/svg" xmlns:xlink="http://www.w3.org/1999/xlink" x="0px" y="0px"
	 viewBox="0 0 232.9 28" style="enable-background:new 0 0 232.9 28;" xml:space="preserve">
<style type="text/css">
	.st0{fill:#999999;}
</style>
<g>
	<g>
		<path class="st0" d="M4.8,26.8c-2-0.6-3.7-1.4-4.8-2.3l2-3.9c1.2,0.9,2.6,1.5,4.4,2c1.7,0.5,3.4,0.8,5.2,0.8
			c4.3,0,6.5-1.2,6.5-3.7c0-0.8-0.3-1.5-0.9-1.9c-0.6-0.5-1.3-0.8-2.2-1c-0.9-0.2-2.1-0.5-3.7-0.7c-2.2-0.3-4-0.7-5.4-1.2
			s-2.6-1.2-3.6-2.3c-1-1.1-1.5-2.5-1.5-4.5c0-2.5,1-4.4,3.1-5.9C6,0.7,8.7,0,12.2,0c1.8,0,3.6,0.2,5.4,0.7c1.8,0.4,3.3,1,4.5,1.8
			L20,6.4c-2.2-1.4-4.8-2.2-7.8-2.2c-2.1,0-3.7,0.3-4.8,1C6.3,5.9,5.7,6.8,5.7,7.9C5.7,8.8,6,9.5,6.7,10c0.6,0.5,1.4,0.9,2.3,1.1
			c0.9,0.2,2.2,0.5,3.8,0.8c2.2,0.4,4,0.8,5.3,1.2c1.3,0.4,2.5,1.2,3.5,2.2c1,1,1.4,2.5,1.4,4.3c0,2.5-1,4.4-3.1,5.9s-5,2.2-8.6,2.2
			C9,27.7,6.9,27.4,4.8,26.8z"/>
		<path class="st0" d="M53.5,15.5h-22c0.3,2.4,1.4,4.3,3.1,5.8c1.8,1.5,4,2.2,6.7,2.2c3.2,0,5.9-1.1,7.8-3.3l2.7,3.2
			c-1.2,1.4-2.8,2.5-4.6,3.3c-1.8,0.8-3.9,1.1-6.1,1.1c-2.9,0-5.4-0.6-7.6-1.8c-2.2-1.2-3.9-2.8-5.1-4.9c-1.2-2.1-1.8-4.5-1.8-7.2
			c0-2.6,0.6-5,1.8-7.1c1.2-2.1,2.8-3.8,4.9-4.9c2.1-1.2,4.4-1.8,7-1.8c2.6,0,4.9,0.6,6.9,1.8c2,1.2,3.6,2.8,4.8,4.9
			c1.1,2.1,1.7,4.5,1.7,7.3C53.6,14.4,53.6,14.9,53.5,15.5z M34.3,6.3c-1.6,1.4-2.5,3.3-2.8,5.6h17.4c-0.3-2.3-1.2-4.2-2.8-5.6
			c-1.6-1.5-3.6-2.2-5.9-2.2S35.9,4.9,34.3,6.3z"/>
		<path class="st0" d="M83.1,3c2,2,3,4.9,3,8.8v15.6h-4.9V12.3c0-2.6-0.6-4.6-1.9-5.9c-1.3-1.3-3.1-2-5.4-2c-2.7,0-4.8,0.8-6.3,2.3
			c-1.5,1.6-2.3,3.8-2.3,6.7v14h-4.9V0.3h4.7v4.1c1-1.4,2.3-2.5,4-3.2C70.9,0.4,72.8,0,74.9,0C78.4,0,81.1,1,83.1,3z"/>
		<path class="st0" d="M115.4,23.4v4H92.7v-3.2l16-19.9H93v-4h22v3.2L99,23.4H115.4z"/>
		<path class="st0" d="M146,15.5h-22c0.3,2.4,1.4,4.3,3.1,5.8c1.8,1.5,4,2.2,6.7,2.2c3.2,0,5.9-1.1,7.8-3.3l2.7,3.2
			c-1.2,1.4-2.8,2.5-4.6,3.3c-1.8,0.8-3.9,1.1-6.1,1.1c-2.9,0-5.4-0.6-7.6-1.8c-2.2-1.2-3.9-2.8-5.1-4.9c-1.2-2.1-1.8-4.5-1.8-7.2
			c0-2.6,0.6-5,1.8-7.1c1.2-2.1,2.8-3.8,4.9-4.9c2.1-1.2,4.4-1.8,7-1.8c2.6,0,4.9,0.6,6.9,1.8c2,1.2,3.6,2.8,4.8,4.9
			c1.1,2.1,1.7,4.5,1.7,7.3C146.1,14.4,146.1,14.9,146,15.5z M126.8,6.3c-1.6,1.4-2.5,3.3-2.8,5.6h17.4c-0.3-2.3-1.2-4.2-2.8-5.6
			c-1.6-1.5-3.6-2.2-5.9-2.2S128.4,4.9,126.8,6.3z"/>
		<path class="st0" d="M195,3c2,2,3,4.9,3,8.8v15.6h-4.9V12.3c0-2.6-0.6-4.6-1.8-5.9c-1.2-1.3-2.9-2-5.2-2c-2.5,0-4.5,0.8-5.9,2.3
			c-1.5,1.6-2.2,3.8-2.2,6.7v14H173V12.3c0-2.6-0.6-4.6-1.8-5.9c-1.2-1.3-2.9-2-5.2-2c-2.5,0-4.5,0.8-5.9,2.3
			c-1.5,1.6-2.2,3.8-2.2,6.7v14h-4.9V0.3h4.7v4c1-1.4,2.3-2.5,3.9-3.2C163.1,0.4,165,0,167,0c2.1,0,4,0.4,5.6,1.3
			c1.6,0.9,2.9,2.1,3.8,3.7c1-1.6,2.4-2.8,4.3-3.7c1.8-0.9,3.9-1.3,6.2-1.3C190.3,0,193,1,195,3z"/>
		<path class="st0" d="M211.6,25.9c-2.2-1.2-3.8-2.8-5-4.9c-1.2-2.1-1.8-4.5-1.8-7.1s0.6-5,1.8-7.1c1.2-2.1,2.9-3.7,5-4.9
			c2.2-1.2,4.6-1.8,7.3-1.8s5.1,0.6,7.2,1.8c2.1,1.2,3.8,2.8,5,4.9c1.2,2.1,1.8,4.5,1.8,7.1s-0.6,5-1.8,7.1c-1.2,2.1-2.9,3.7-5,4.9
			c-2.1,1.2-4.6,1.8-7.2,1.8S213.7,27.1,211.6,25.9z M223.5,22.2c1.4-0.8,2.5-1.9,3.3-3.4c0.8-1.5,1.2-3.1,1.2-5
			c0-1.9-0.4-3.5-1.2-5c-0.8-1.5-1.9-2.6-3.3-3.4c-1.4-0.8-2.9-1.2-4.7-1.2c-1.7,0-3.3,0.4-4.7,1.2c-1.4,0.8-2.5,1.9-3.3,3.4
			c-0.8,1.5-1.2,3.1-1.2,5c0,1.9,0.4,3.5,1.2,5c0.8,1.5,1.9,2.6,3.3,3.4c1.4,0.8,2.9,1.2,4.7,1.2C220.6,23.4,222.1,23,223.5,22.2z"
			/>
	</g>
</g>
</svg>
