<?xml version="1.0" encoding="utf-8"?>
<!-- Generator: Adobe Illustrator 22.1.0, SVG Export Plug-In . SVG Version: 6.00 Build 0)  -->
<svg version="1.1" id="Layer_1" xmlns="http://www.w3.org/2000/svg" xmlns:xlink="http://www.w3.org/1999/xlink" x="0px" y="0px"
	 viewBox="0 0 160 38" style="enable-background:new 0 0 160 38;" xml:space="preserve">
<style type="text/css">
	.st0{fill:#FFFFFF;}
</style>
<title>Logo</title>
<desc>Created with Sketch.</desc>
<g id="Header">
	<g id="Logo" transform="translate(320.000000, 21.000000)">
		<polygon id="Fill-1" class="st0" points="-318.7,-18 -320,-11.9 -313.3,-11.9 -316.4,3 -308.8,3 -305.8,-11.9 -299.2,-11.9 
			-298,-18 		"/>
		<g id="Group-54" transform="translate(3.000000, 0.000000)">
			<path id="Fill-2" class="st0" d="M-292.7-7.3c0.2-1.2,0.5-3-1.2-3c-1.7,0-2.5,1.9-2.6,3H-292.7z M-297.1-4.1
				c-0.3,1.9,1.4,2.4,3.5,2.4c2,0,3.8-0.3,5.1-1l-0.9,4c-2.1,0.6-4.4,0.9-7,0.9c-6.1,0-8.7-3-7.6-8.2c1.2-5.2,5-7.8,11.1-7.8
				c5.8,0,7.1,3.7,6,8.9l-0.2,0.9L-297.1-4.1z"/>
			<polygon id="Fill-4" class="st0" points="-274.9,-20.3 -279.6,1.8 -286.9,1.8 -282.3,-20.3 			"/>
			<path id="Fill-6" class="st0" d="M-265.4-7.3c0.2-1.2,0.5-3-1.2-3s-2.5,1.9-2.6,3H-265.4z M-269.9-4.1c-0.3,1.9,1.4,2.3,3.5,2.3
				c2,0,3.8-0.3,5.1-1l-0.9,4c-2.1,0.6-4.4,0.8-7,0.8c-6.1,0-8.7-3-7.6-8.2c1.1-5.2,4.9-7.7,11-7.7c5.8,0,7.1,3.7,6,8.9v0.9H-269.9z
				"/>
			<path id="Fill-8" class="st0" d="M-239.3,1c-2.9,0.8-5.4,1.1-8.7,1.1c-6.7,0-11.4-3.6-9.8-10.8c1.5-6.9,7.9-10.3,14.3-10.3
				c3.8,0,5.5,0.3,7.4,0.8l-1.2,5.6c-1-0.6-3-1.2-5-1.2c-3.8,0-6.8,2-7.6,5.7c-0.6,2.8,0,5.3,3,5.3c0.6,0,1.2,0,1.7-0.2l1.2-5.5h6.6
				L-239.3,1z"/>
			<path id="Fill-10" class="st0" d="M-227-13.6l-0.7,3.5h0.1c1.4-2.1,3.1-3.8,5.4-3.8c0.4,0,0.9,0.1,1.2,0.2l-1.4,6.1
				c-0.3-0.2-1-0.2-1.6-0.2c-2.1,0-4.1,1.9-4.6,4l-1.2,5.6h-7.3l3.2-15.3C-233.7-13.6-227-13.6-227-13.6"/>
			<path id="Fill-12" class="st0" d="M-213.3-2.3c1.4,0,2-1.7,2.5-3.9c0.4-1.9,0.5-3.3-1-3.3c-1.4,0-1.9,1.5-2.3,3.3
				C-214.6-3.9-214.7-2.3-213.3-2.3 M-210.8-14c6.1,0,8.9,2.6,7.8,7.7c-1.1,5.3-5,8.2-11.1,8.2c-6.1,0-8.7-3-7.6-8.2
				C-220.8-11.3-216.9-14-210.8-14"/>
			<path id="Fill-14" class="st0" d="M-186.2,1.8h-6.9l0.6-2.6h-0.1c-1.4,2.1-3.4,3-5.5,3c-3.8,0-4.9-2.1-4.2-5l2.3-10.6h7.3
				l-1.9,8.8c-0.2,0.9-0.5,2.1,0.9,2.1c1.3,0,1.6-1.2,1.8-2.1l1.9-8.8h7.3L-186.2,1.8z"/>
			<path id="Fill-16" class="st0" d="M-174.2-2.5c1.5,0,2.2-1.6,2.5-3.2c0.3-1.6,0.5-3.3-1.1-3.3c-1.6,0-2.2,1.7-2.5,3.2
				C-175.7-4-175.8-2.5-174.2-2.5L-174.2-2.5z M-180.8-13.6h6.8l-0.6,2.7h0.1c1.5-2.3,3.1-3.2,5.5-3.2c4.8,0,5.8,3.8,4.9,8.2
				c-0.9,4.1-3.5,7.8-8.1,7.8c-2,0-3.2-0.7-4-2.3h-0.1l-1.8,8.2h-7.3L-180.8-13.6z"/>
		</g>
	</g>
</g>
<g>
	<path class="st0" d="M4.5,33.5H3.5c-0.1,0-0.1-0.1-0.1-0.1l0.1-0.8c0-0.1,0.1-0.1,0.1-0.1h3.1c0.1,0,0.1,0.1,0.1,0.1l-0.1,0.8
		c0,0.1-0.1,0.1-0.1,0.1H5.7l-0.6,4.1c0,0.1-0.1,0.1-0.2,0.1H4c-0.1,0-0.1-0.1-0.1-0.1L4.5,33.5z"/>
	<path class="st0" d="M10.4,32.6c0-0.1,0.1-0.1,0.1-0.1h2.9c0.1,0,0.1,0.1,0.1,0.1l-0.1,0.8c0,0.1-0.1,0.1-0.1,0.1h-1.8l-0.1,0.9
		h1.5c0.1,0,0.1,0.1,0.1,0.1l-0.1,0.8c0,0.1-0.1,0.1-0.2,0.1h-1.5l-0.1,1h1.8c0.1,0,0.1,0.1,0.1,0.1l-0.1,0.8c0,0.1-0.1,0.1-0.2,0.1
		H9.8c-0.1,0-0.1-0.1-0.1-0.1L10.4,32.6z"/>
	<path class="st0" d="M19.5,32.4c0.7,0,1.2,0.2,1.6,0.7c0,0.1,0,0.2,0,0.2l-0.7,0.6c-0.1,0.1-0.1,0-0.2,0c-0.2-0.2-0.5-0.3-0.8-0.3
		c-0.8,0-1.5,0.8-1.5,1.8c0,0.7,0.4,1.3,1,1.3c0.3,0,0.6-0.2,0.9-0.4c0.1,0,0.1,0,0.2,0l0.5,0.7c0,0.1,0,0.2,0,0.2
		c-0.5,0.5-1.1,0.7-1.7,0.7c-1.1,0-2.2-1.1-2.2-2.4C16.7,33.7,17.9,32.4,19.5,32.4z"/>
	<path class="st0" d="M24.9,32.6c0-0.1,0.1-0.1,0.2-0.1H26c0.1,0,0.1,0.1,0.1,0.1l-0.3,1.9h1.8l0.3-1.9c0-0.1,0.1-0.1,0.2-0.1H29
		c0.1,0,0.1,0.1,0.1,0.1l-0.7,5c0,0.1-0.1,0.1-0.2,0.1h-0.9c-0.1,0-0.1-0.1-0.1-0.1l0.3-2h-1.8l-0.3,2c0,0.1-0.1,0.1-0.2,0.1h-0.9
		c-0.1,0-0.1-0.1-0.1-0.1L24.9,32.6z"/>
	<path class="st0" d="M33.2,32.5c0-0.1,0.1-0.1,0.2-0.1h0.2l2.3,2.9h0l0.4-2.7c0-0.1,0.1-0.1,0.1-0.1h0.9c0.1,0,0.1,0.1,0.1,0.1
		l-0.7,5.1c0,0.1-0.1,0.1-0.1,0.1h-0.2l-2.3-3h0l-0.3,2.8c0,0.1-0.1,0.1-0.2,0.1h-0.9c-0.1,0-0.1-0.1-0.1-0.1L33.2,32.5z"/>
	<path class="st0" d="M43.6,32.4c1.2,0,2.1,1.1,2.1,2.4c0,1.7-1.3,3.1-2.9,3.1c-1.2,0-2.1-1.1-2.1-2.4C40.7,33.8,42,32.4,43.6,32.4z
		 M44.4,34.9c0-0.7-0.4-1.3-1-1.3c-0.7,0-1.5,0.8-1.5,1.7c0,0.7,0.4,1.3,1,1.3C43.7,36.6,44.4,35.8,44.4,34.9z"/>
	<path class="st0" d="M49.8,32.6c0-0.1,0.1-0.1,0.2-0.1h0.9c0.1,0,0.1,0.1,0.1,0.1l-0.6,4.1h1.6c0.1,0,0.1,0.1,0.1,0.1l-0.1,0.8
		c0,0.1-0.1,0.1-0.2,0.1h-2.6c-0.1,0-0.1-0.1-0.1-0.1L49.8,32.6z"/>
	<path class="st0" d="M58.3,32.4c1.2,0,2.1,1.1,2.1,2.4c0,1.7-1.3,3.1-2.9,3.1c-1.2,0-2.1-1.1-2.1-2.4
		C55.4,33.8,56.7,32.4,58.3,32.4z M59.1,34.9c0-0.7-0.4-1.3-1-1.3c-0.7,0-1.5,0.8-1.5,1.7c0,0.7,0.4,1.3,1,1.3
		C58.4,36.6,59.1,35.8,59.1,34.9z"/>
	<path class="st0" d="M66.6,32.4c0.5,0,1.2,0.3,1.6,0.7c0.1,0.1,0.1,0.1,0,0.2l-0.6,0.6c-0.1,0.1-0.2,0.1-0.2,0
		c-0.2-0.2-0.5-0.3-0.8-0.3c-0.7,0-1.5,0.8-1.5,1.8c0,0.7,0.4,1.3,1,1.3c0.1,0,0.3,0,0.5-0.1l0.1-0.4h-0.4c-0.1,0-0.1-0.1-0.1-0.1
		l0.1-0.8c0-0.1,0.1-0.1,0.2-0.1h1.4c0.1,0,0.1,0.1,0.1,0.1l-0.3,2c0,0.1,0,0.1-0.1,0.1c0,0-0.8,0.5-1.8,0.5c-1.2,0-2.1-1.1-2.1-2.4
		C63.7,33.7,64.9,32.4,66.6,32.4z"/>
	<path class="st0" d="M72.6,35.2l-1.1-2.5c0-0.1,0-0.2,0.1-0.2h1c0.1,0,0.1,0,0.1,0.1l0.6,1.6l1.1-1.6c0,0,0.1-0.1,0.1-0.1h1.1
		c0.1,0,0.2,0.1,0.1,0.2l-1.9,2.5l-0.3,2.4c0,0.1-0.1,0.1-0.2,0.1h-0.9c-0.1,0-0.1-0.1-0.1-0.1L72.6,35.2z"/>
	<path class="st0" d="M83.6,32.6c0-0.1,0.1-0.1,0.2-0.1h1.7c0.8,0,1.3,0.7,1.3,1.5c0,1-0.8,1.9-1.8,1.9h-0.6l-0.3,1.8
		c0,0.1-0.1,0.1-0.2,0.1H83c-0.1,0-0.1-0.1-0.1-0.1L83.6,32.6z M85.1,34.7c0.3,0,0.5-0.3,0.5-0.7c0-0.3-0.2-0.5-0.4-0.5h-0.6
		l-0.2,1.2H85.1z"/>
	<path class="st0" d="M89,37.6l2.9-5.1c0,0,0.1-0.1,0.1-0.1h0.1c0.1,0,0.1,0,0.1,0.1l1.4,5.1c0,0.1,0,0.2-0.1,0.2h-0.9
		c-0.1,0-0.2,0-0.2-0.2L92.3,37h-1.7l-0.3,0.6c0,0.1-0.1,0.2-0.3,0.2h-0.9C89,37.8,89,37.7,89,37.6z M92,35.9l-0.2-1.3h0l-0.6,1.3
		H92z"/>
	<path class="st0" d="M97.8,32.6c0-0.1,0.1-0.1,0.1-0.1h2.1c0.8,0,1.3,0.6,1.3,1.4c0,0.8-0.5,1.5-1.2,1.7l0.7,1.9
		c0,0.1,0,0.2-0.1,0.2h-1c-0.1,0-0.1,0-0.1-0.1l-0.6-2h-0.3l-0.3,1.9c0,0.1-0.1,0.1-0.1,0.1h-0.9c-0.1,0-0.1-0.1-0.1-0.1L97.8,32.6z
		 M99.5,34.7c0.4,0,0.6-0.3,0.6-0.7c0-0.3-0.1-0.5-0.4-0.5h-0.9l-0.2,1.2H99.5z"/>
	<path class="st0" d="M105.7,33.5h-0.9c-0.1,0-0.1-0.1-0.1-0.1l0.1-0.8c0-0.1,0.1-0.1,0.1-0.1h3.1c0.1,0,0.1,0.1,0.1,0.1l-0.1,0.8
		c0,0.1-0.1,0.1-0.1,0.1h-0.9l-0.6,4.1c0,0.1-0.1,0.1-0.2,0.1h-0.9c-0.1,0-0.1-0.1-0.1-0.1L105.7,33.5z"/>
	<path class="st0" d="M111.7,32.5c0-0.1,0.1-0.1,0.2-0.1h0.2l2.3,2.9h0l0.4-2.7c0-0.1,0.1-0.1,0.1-0.1h0.9c0.1,0,0.1,0.1,0.1,0.1
		l-0.7,5.1c0,0.1-0.1,0.1-0.1,0.1h-0.2l-2.3-3h0l-0.3,2.8c0,0.1-0.1,0.1-0.2,0.1h-0.9c-0.1,0-0.1-0.1-0.1-0.1L111.7,32.5z"/>
	<path class="st0" d="M120,32.6c0-0.1,0.1-0.1,0.1-0.1h2.9c0.1,0,0.1,0.1,0.1,0.1l-0.1,0.8c0,0.1-0.1,0.1-0.1,0.1H121l-0.1,0.9h1.5
		c0.1,0,0.1,0.1,0.1,0.1l-0.1,0.8c0,0.1-0.1,0.1-0.2,0.1h-1.5l-0.1,1h1.8c0.1,0,0.1,0.1,0.1,0.1l-0.1,0.8c0,0.1-0.1,0.1-0.2,0.1
		h-2.9c-0.1,0-0.1-0.1-0.1-0.1L120,32.6z"/>
	<path class="st0" d="M126.9,32.6c0-0.1,0.1-0.1,0.1-0.1h2.1c0.8,0,1.3,0.6,1.3,1.4c0,0.8-0.5,1.5-1.2,1.7l0.7,1.9
		c0,0.1,0,0.2-0.1,0.2h-1c-0.1,0-0.1,0-0.1-0.1l-0.6-2h-0.3l-0.3,1.9c0,0.1-0.1,0.1-0.1,0.1h-0.9c-0.1,0-0.1-0.1-0.1-0.1L126.9,32.6
		z M128.6,34.7c0.4,0,0.6-0.3,0.6-0.7c0-0.3-0.1-0.5-0.4-0.5H128l-0.2,1.2H128.6z"/>
</g>
</svg>
