<?xml version="1.0" encoding="utf-8"?>
<!-- Generator: Adobe Illustrator 15.0.0, SVG Export Plug-In  -->
<!DOCTYPE svg PUBLIC "-//W3C//DTD SVG 1.1//EN" "http://www.w3.org/Graphics/SVG/1.1/DTD/svg11.dtd" [
	<!ENTITY ns_flows "http://ns.adobe.com/Flows/1.0/">
]>
<svg version="1.1"
	 xmlns="http://www.w3.org/2000/svg" xmlns:xlink="http://www.w3.org/1999/xlink" xmlns:a="http://ns.adobe.com/AdobeSVGViewerExtensions/3.0/"
	 x="0px" y="0px" width="380px" height="214px" viewBox="0.006 -0.004 380 214" enable-background="new 0.006 -0.004 380 214"
	 xml:space="preserve">
<defs>
</defs>
<rect fill="none" width="380.014" height="213.987"/>
<g>
	<g>
		<defs>
			<rect id="SVGID_1_" x="68.588" y="58.808" width="242.835" height="96.377"/>
		</defs>
		<clipPath id="SVGID_3_">
			<use xlink:href="#SVGID_1_"  overflow="visible"/>
		</clipPath>
		<g clip-path="url(#SVGID_3_)">
			<defs>
				<rect id="SVGID_2_" x="68.588" y="58.807" width="242.835" height="96.378"/>
			</defs>
			<clipPath id="SVGID_4_">
				<use xlink:href="#SVGID_2_"  overflow="visible"/>
			</clipPath>
			<path clip-path="url(#SVGID_4_)" fill="#003974" d="M111.836,99.141c-6.326,0-10.386-5.15-9.041-11.48
				c1.35-6.328,7.588-11.483,13.918-11.483h22.773l9.747-13.113h-29.735c-13.555,0-26.938,11.03-29.816,24.597
				c-2.892,13.561,5.802,24.594,19.357,24.594h24.618l2.79-13.113H111.836z"/>
			<path clip-path="url(#SVGID_4_)" fill="#003974" d="M259.316,99.141c-6.322,0-10.381-5.15-9.029-11.48
				c1.338-6.328,7.572-11.483,13.918-11.483h22.763l9.747-13.113h-29.724c-13.567,0-26.946,11.03-29.825,24.597
				c-2.887,13.561,5.803,24.594,19.365,24.594h24.611l2.785-13.113H259.316z"/>
			<path clip-path="url(#SVGID_4_)" fill="#003974" d="M212.439,61.687c-7.122,0-14.189,3.043-19.713,7.897
				c-3.479-4.854-9.242-7.897-16.362-7.897c-13.559,0-26.949,11.033-29.829,24.602l-5.521,25.967h13.113l5.523-25.967
				c1.349-6.328,7.59-11.483,13.916-11.483c6.336,0,10.393,5.155,9.043,11.483l-5.517,25.967h13.112l5.52-25.967
				c1.355-6.328,7.592-11.483,13.928-11.483c6.327,0,10.382,5.155,9.039,11.483l-5.521,25.967h13.114l5.526-25.967
				C234.695,72.72,225.998,61.687,212.439,61.687"/>
			<path clip-path="url(#SVGID_4_)" fill="#72BF44" d="M109.428,96.251c-6.331,0-10.386-5.145-9.042-11.47
				c1.354-6.33,7.588-11.482,13.918-11.482h22.771l9.747-13.119h-29.72c-13.57,0-26.949,11.033-29.832,24.602
				c-2.884,13.565,5.806,24.599,19.364,24.599h24.611l2.794-13.129H109.428z"/>
			<path clip-path="url(#SVGID_4_)" fill="#72BF44" d="M257.233,96.251c-6.323,0-10.386-5.145-9.041-11.47
				c1.346-6.33,7.596-11.482,13.922-11.482h22.773l9.739-13.119h-29.72c-13.563,0-26.949,11.033-29.836,24.602
				c-2.876,13.565,5.814,24.599,19.372,24.599h24.619l2.778-13.129H257.233z"/>
			<path clip-path="url(#SVGID_4_)" fill="#72BF44" d="M210.027,58.808c-7.122,0-14.183,3.049-19.719,7.897
				c-3.463-4.849-9.238-7.897-16.353-7.897c-13.563,0-26.945,11.033-29.837,24.602l-5.509,25.971h13.112l5.521-25.971
				c1.352-6.334,7.593-11.483,13.912-11.483c6.34,0,10.398,5.149,9.047,11.483l-5.521,25.971h13.12l5.523-25.971
				c1.349-6.334,7.582-11.483,13.912-11.483s10.386,5.149,9.043,11.483l-5.513,25.971h13.109l5.527-25.971
				C232.287,69.841,223.594,58.808,210.027,58.808"/>
			<path clip-path="url(#SVGID_4_)" fill="#003974" d="M188.392,126.368c-40.888,3.58-81.045,12.518-119.368,26.538l-0.436,2.044
				c0.02-0.007,0.034,0,0.052-0.007c39.082-10.977,79.568-18.353,120.339-21.923c40.683-3.554,81.749-3.332,122.065,0.67
				l0.379-1.776C270.974,124.632,229.582,122.766,188.392,126.368"/>
			<path clip-path="url(#SVGID_4_)" fill="#003974" d="M211.472,142.153c0.174,0.153,0.321,0.319,0.442,0.498
				c0.12,0.176,0.217,0.349,0.288,0.525c0.073,0.176,0.122,0.336,0.153,0.477c0.032,0.139,0.038,0.238,0.026,0.295
				c-0.018,0.071-0.072,0.127-0.166,0.167l-2.052,0.91c-0.032,0.016-0.069,0.023-0.111,0.023c-0.069,0-0.112-0.035-0.126-0.099
				c-0.011-0.061-0.042-0.151-0.086-0.263c-0.105-0.323-0.242-0.574-0.414-0.748c-0.169-0.179-0.41-0.267-0.719-0.267h-1.394
				c-0.423,0-0.819,0.148-1.182,0.442c-0.365,0.298-0.596,0.658-0.699,1.08l-1.465,6.251c-0.101,0.422-0.035,0.781,0.192,1.077
				c0.226,0.297,0.549,0.444,0.976,0.444h1.032c0.42,0,0.81-0.145,1.166-0.433c0.357-0.291,0.587-0.652,0.688-1.089l0.233-0.994
				c0.035-0.139-0.021-0.212-0.162-0.212h-1.984c-0.142,0-0.193-0.068-0.161-0.21l0.423-1.795c0.033-0.142,0.121-0.213,0.26-0.213
				h4.413c0.142,0,0.194,0.071,0.162,0.213l-0.753,3.211c-0.134,0.561-0.348,1.073-0.645,1.53c-0.296,0.459-0.653,0.853-1.07,1.183
				c-0.413,0.332-0.886,0.586-1.413,0.762c-0.527,0.178-1.084,0.262-1.679,0.262h-1.034c-0.589,0-1.108-0.084-1.552-0.262
				c-0.445-0.176-0.8-0.43-1.069-0.762c-0.268-0.33-0.438-0.724-0.515-1.183c-0.076-0.457-0.047-0.97,0.084-1.53l1.469-6.251
				c0.13-0.564,0.345-1.077,0.643-1.531c0.297-0.459,0.653-0.849,1.068-1.172c0.413-0.323,0.883-0.579,1.412-0.764
				c0.529-0.179,1.089-0.272,1.682-0.272h1.392C210.17,141.456,210.918,141.687,211.472,142.153"/>
			<path clip-path="url(#SVGID_4_)" fill="#003974" d="M230.789,154.805c-0.028,0.113-0.112,0.168-0.252,0.168h-2.176
				c-0.071,0-0.12-0.05-0.157-0.145l-0.6-5.367l-0.141-0.126h-1.879c-0.139,0-0.225,0.068-0.26,0.21l-1.226,5.218
				c-0.03,0.14-0.118,0.21-0.259,0.21h-2.007c-0.139,0-0.195-0.07-0.16-0.21l3.021-12.884c0.034-0.142,0.12-0.211,0.262-0.211h4.749
				c1.214,0,2.088,0.351,2.627,1.056c0.539,0.703,0.667,1.661,0.382,2.874l-0.047,0.21c-0.117,0.492-0.323,0.932-0.615,1.316
				c-0.299,0.391-0.578,0.704-0.846,0.943c-0.241,0.182-0.47,0.336-0.69,0.465c-0.219,0.126-0.343,0.241-0.363,0.336l-0.005,0.023
				l0.644,5.806C230.797,154.728,230.795,154.763,230.789,154.805 M230.352,145.404c0.096-0.407,0.029-0.761-0.201-1.067
				c-0.236-0.302-0.556-0.451-0.963-0.451h-2.323c-0.138,0-0.228,0.071-0.262,0.209l-0.658,2.811
				c-0.032,0.141,0.021,0.212,0.161,0.212h2.323c0.409,0,0.799-0.149,1.171-0.445c0.373-0.295,0.608-0.654,0.708-1.074
				L230.352,145.404z"/>
			<path clip-path="url(#SVGID_4_)" fill="#003974" d="M251.247,152.976c-0.296,0.461-0.653,0.855-1.072,1.184
				c-0.413,0.331-0.881,0.586-1.41,0.762c-0.526,0.178-1.087,0.264-1.677,0.264h-1.034c-0.593,0-1.113-0.086-1.555-0.264
				c-0.446-0.176-0.802-0.431-1.069-0.762c-0.268-0.328-0.438-0.723-0.512-1.184c-0.077-0.456-0.05-0.969,0.084-1.527l1.465-6.253
				c0.129-0.564,0.347-1.075,0.644-1.531c0.296-0.459,0.653-0.85,1.069-1.173c0.41-0.322,0.885-0.578,1.412-0.761
				c0.527-0.182,1.088-0.275,1.681-0.275h1.034c0.591,0,1.108,0.094,1.551,0.275c0.445,0.183,0.795,0.438,1.058,0.761
				c0.261,0.323,0.436,0.714,0.518,1.173c0.082,0.456,0.058,0.967-0.074,1.531l-1.467,6.253
				C251.76,152.007,251.543,152.52,251.247,152.976 M250.93,145.195c0.102-0.438,0.04-0.8-0.18-1.088
				c-0.22-0.289-0.541-0.435-0.964-0.435h-1.034c-0.422,0-0.815,0.147-1.181,0.444c-0.366,0.296-0.599,0.655-0.696,1.078
				l-1.469,6.253c-0.097,0.42-0.034,0.779,0.193,1.075c0.226,0.296,0.549,0.443,0.974,0.443h1.034c0.42,0,0.813-0.144,1.168-0.433
				c0.357-0.288,0.585-0.651,0.687-1.086L250.93,145.195z"/>
			<path clip-path="url(#SVGID_4_)" fill="#003974" d="M272.095,152.977c-0.296,0.459-0.653,0.853-1.072,1.184
				c-0.413,0.331-0.882,0.585-1.411,0.761c-0.526,0.176-1.086,0.262-1.677,0.262H266.9c-0.593,0-1.112-0.086-1.554-0.262
				c-0.446-0.176-0.802-0.43-1.069-0.761s-0.438-0.725-0.513-1.184c-0.076-0.457-0.049-0.969,0.084-1.528l2.243-9.57
				c0.034-0.141,0.118-0.21,0.26-0.21h1.986c0.138,0,0.195,0.069,0.161,0.21l-2.245,9.57c-0.098,0.42-0.035,0.777,0.193,1.076
				c0.226,0.296,0.549,0.443,0.974,0.443h1.034c0.42,0,0.813-0.145,1.168-0.433c0.357-0.29,0.585-0.651,0.686-1.087l2.244-9.57
				c0.035-0.141,0.121-0.21,0.263-0.21h2.005c0.143,0,0.195,0.069,0.163,0.21l-2.244,9.57
				C272.607,152.008,272.391,152.52,272.095,152.977"/>
			<path clip-path="url(#SVGID_4_)" fill="#003974" d="M294.435,142.733c0.544,0.713,0.675,1.667,0.395,2.864
				c-0.128,0.549-0.34,1.049-0.639,1.51c-0.296,0.455-0.657,0.849-1.078,1.182c-0.424,0.331-0.896,0.587-1.417,0.769
				c-0.523,0.186-1.08,0.277-1.67,0.277h-1.901c-0.142,0-0.228,0.068-0.261,0.21l-1.225,5.218c-0.03,0.14-0.118,0.21-0.26,0.21
				h-2.006c-0.142,0-0.195-0.07-0.16-0.21l3.021-12.884c0.032-0.142,0.119-0.211,0.26-0.211h4.329
				C293.021,141.668,293.891,142.022,294.435,142.733 M292.468,145.404c0.096-0.407,0.031-0.761-0.195-1.067
				c-0.223-0.302-0.549-0.451-0.969-0.451h-1.902c-0.14,0-0.228,0.071-0.26,0.209l-0.658,2.811
				c-0.034,0.141,0.021,0.212,0.161,0.212h1.9c0.422,0,0.817-0.149,1.181-0.445c0.366-0.295,0.599-0.654,0.698-1.074
				L292.468,145.404z"/>
		</g>
	</g>
</g>
</svg>
